<mxfile host="Electron" modified="2023-04-13T15:41:55.428Z" agent="Mozilla/5.0 (X11; Linux x86_64) AppleWebKit/537.36 (KHTML, like Gecko) draw.io/21.1.2 Chrome/106.0.5249.199 Electron/21.4.3 Safari/537.36" etag="M423GUqfOG7ScPckCRC8" version="21.1.2" type="device">
  <diagram name="Page-1" id="1CsowneHBCO3tvPWQNT_">
    <mxGraphModel dx="2284" dy="843" grid="1" gridSize="10" guides="1" tooltips="1" connect="1" arrows="1" fold="1" page="1" pageScale="1" pageWidth="850" pageHeight="1100" math="0" shadow="0">
      <root>
        <mxCell id="0" />
        <mxCell id="1" parent="0" />
        <mxCell id="swd-MPaGd7rMb2sxRymj-6" value="&lt;p style=&quot;border-color: var(--border-color); margin: 4px 0px 0px; text-align: center;&quot;&gt;&lt;i style=&quot;border-color: var(--border-color);&quot;&gt;&amp;lt;&amp;lt;Interface&amp;gt;&amp;gt;&lt;/i&gt;&lt;br style=&quot;border-color: var(--border-color);&quot;&gt;&lt;b style=&quot;border-color: var(--border-color);&quot;&gt;UserRepo&lt;/b&gt;&lt;/p&gt;&lt;hr style=&quot;border-color: var(--border-color);&quot; size=&quot;1&quot;&gt;&lt;p style=&quot;border-color: var(--border-color); margin: 0px 0px 0px 4px;&quot;&gt;&lt;/p&gt;&lt;p style=&quot;border-color: var(--border-color); margin: 0px 0px 0px 4px;&quot;&gt;+ getCustomerByLogin()&lt;br style=&quot;border-color: var(--border-color);&quot;&gt;+ getEmployeeByLogin()&lt;/p&gt;" style="verticalAlign=top;align=left;overflow=fill;fontSize=12;fontFamily=Helvetica;html=1;whiteSpace=wrap;" parent="1" vertex="1">
          <mxGeometry x="390" y="545" width="190" height="80" as="geometry" />
        </mxCell>
        <mxCell id="swd-MPaGd7rMb2sxRymj-7" value="&lt;p style=&quot;border-color: var(--border-color); margin: 4px 0px 0px; text-align: center;&quot;&gt;&lt;i style=&quot;border-color: var(--border-color);&quot;&gt;&amp;lt;&amp;lt;Interface&amp;gt;&amp;gt;&lt;/i&gt;&lt;br style=&quot;border-color: var(--border-color);&quot;&gt;&lt;b style=&quot;border-color: var(--border-color);&quot;&gt;CardRepo&lt;/b&gt;&lt;/p&gt;&lt;hr style=&quot;border-color: var(--border-color);&quot; size=&quot;1&quot;&gt;&lt;p style=&quot;border-color: var(--border-color); margin: 0px 0px 0px 4px;&quot;&gt;&lt;/p&gt;&lt;p style=&quot;border-color: var(--border-color); margin: 0px 0px 0px 4px;&quot;&gt;+ getCardByCustomerLogin()&lt;br style=&quot;border-color: var(--border-color);&quot;&gt;+ updateCard()&lt;/p&gt;" style="verticalAlign=top;align=left;overflow=fill;fontSize=12;fontFamily=Helvetica;html=1;whiteSpace=wrap;" parent="1" vertex="1">
          <mxGeometry x="130" y="540" width="190" height="80" as="geometry" />
        </mxCell>
        <mxCell id="swd-MPaGd7rMb2sxRymj-8" value="&lt;p style=&quot;border-color: var(--border-color); margin: 4px 0px 0px; text-align: center;&quot;&gt;&lt;i style=&quot;border-color: var(--border-color);&quot;&gt;&amp;lt;&amp;lt;Interface&amp;gt;&amp;gt;&lt;/i&gt;&lt;br style=&quot;border-color: var(--border-color);&quot;&gt;&lt;b style=&quot;border-color: var(--border-color);&quot;&gt;OrderRepo&lt;/b&gt;&lt;/p&gt;&lt;hr style=&quot;border-color: var(--border-color);&quot; size=&quot;1&quot;&gt;&lt;p style=&quot;border-color: var(--border-color); margin: 0px 0px 0px 4px;&quot;&gt;&lt;/p&gt;&lt;p style=&quot;border-color: var(--border-color); margin: 0px 0px 0px 4px;&quot;&gt;+ getOrderByCustomerLogin()&lt;/p&gt;&lt;p style=&quot;border-color: var(--border-color); margin: 0px 0px 0px 4px;&quot;&gt;+ getOrderByEmployeeLogin()&lt;br style=&quot;border-color: var(--border-color);&quot;&gt;+ addOrder()&lt;/p&gt;" style="verticalAlign=top;align=left;overflow=fill;fontSize=12;fontFamily=Helvetica;html=1;whiteSpace=wrap;" parent="1" vertex="1">
          <mxGeometry x="950" y="540" width="190" height="90" as="geometry" />
        </mxCell>
        <mxCell id="swd-MPaGd7rMb2sxRymj-9" value="&lt;p style=&quot;border-color: var(--border-color); margin: 4px 0px 0px; text-align: center;&quot;&gt;&lt;i style=&quot;border-color: var(--border-color);&quot;&gt;&amp;lt;&amp;lt;Interface&amp;gt;&amp;gt;&lt;/i&gt;&lt;br style=&quot;border-color: var(--border-color);&quot;&gt;&lt;b style=&quot;border-color: var(--border-color);&quot;&gt;ProductRepo&lt;/b&gt;&lt;/p&gt;&lt;hr style=&quot;border-color: var(--border-color);&quot; size=&quot;1&quot;&gt;&lt;p style=&quot;border-color: var(--border-color); margin: 0px 0px 0px 4px;&quot;&gt;&lt;/p&gt;&lt;p style=&quot;border-color: var(--border-color); margin: 0px 0px 0px 4px;&quot;&gt;+ getProductById()&lt;br style=&quot;border-color: var(--border-color);&quot;&gt;+ getAllProducts()&lt;/p&gt;" style="verticalAlign=top;align=left;overflow=fill;fontSize=12;fontFamily=Helvetica;html=1;whiteSpace=wrap;" parent="1" vertex="1">
          <mxGeometry x="680" y="550" width="190" height="80" as="geometry" />
        </mxCell>
        <mxCell id="YptJBvcX4ipB8fHEeAZc-5" value="AuthServiceImpl" style="swimlane;fontStyle=0;childLayout=stackLayout;horizontal=1;startSize=26;fillColor=none;horizontalStack=0;resizeParent=1;resizeParentMax=0;resizeLast=0;collapsible=1;marginBottom=0;whiteSpace=wrap;html=1;" vertex="1" parent="1">
          <mxGeometry x="130" y="270" width="190" height="50" as="geometry" />
        </mxCell>
        <mxCell id="YptJBvcX4ipB8fHEeAZc-8" value="&lt;p style=&quot;border-color: var(--border-color); margin: 4px 0px 0px; text-align: center;&quot;&gt;&lt;i style=&quot;border-color: var(--border-color);&quot;&gt;&amp;lt;&amp;lt;Interface&amp;gt;&amp;gt;&lt;/i&gt;&lt;br style=&quot;border-color: var(--border-color);&quot;&gt;&lt;b style=&quot;border-color: var(--border-color);&quot;&gt;AuthService&lt;/b&gt;&lt;/p&gt;&lt;hr style=&quot;border-color: var(--border-color);&quot; size=&quot;1&quot;&gt;&lt;p style=&quot;border-color: var(--border-color); margin: 0px 0px 0px 4px;&quot;&gt;&lt;/p&gt;&lt;p style=&quot;border-color: var(--border-color); margin: 0px 0px 0px 4px;&quot;&gt;+ login()&lt;br style=&quot;border-color: var(--border-color);&quot;&gt;+ registration()&lt;/p&gt;" style="verticalAlign=top;align=left;overflow=fill;fontSize=12;fontFamily=Helvetica;html=1;whiteSpace=wrap;" vertex="1" parent="1">
          <mxGeometry x="130" y="60" width="190" height="80" as="geometry" />
        </mxCell>
        <mxCell id="YptJBvcX4ipB8fHEeAZc-9" value="" style="endArrow=block;dashed=1;endFill=0;endSize=12;html=1;rounded=0;" edge="1" parent="1" source="YptJBvcX4ipB8fHEeAZc-5" target="YptJBvcX4ipB8fHEeAZc-8">
          <mxGeometry width="160" relative="1" as="geometry">
            <mxPoint x="550" y="440" as="sourcePoint" />
            <mxPoint x="710" y="440" as="targetPoint" />
          </mxGeometry>
        </mxCell>
        <mxCell id="YptJBvcX4ipB8fHEeAZc-10" value="UserServiceImpl" style="swimlane;fontStyle=0;childLayout=stackLayout;horizontal=1;startSize=26;fillColor=none;horizontalStack=0;resizeParent=1;resizeParentMax=0;resizeLast=0;collapsible=1;marginBottom=0;whiteSpace=wrap;html=1;" vertex="1" parent="1">
          <mxGeometry x="390" y="270" width="190" height="50" as="geometry" />
        </mxCell>
        <mxCell id="YptJBvcX4ipB8fHEeAZc-11" value="&lt;p style=&quot;border-color: var(--border-color); margin: 4px 0px 0px; text-align: center;&quot;&gt;&lt;i style=&quot;border-color: var(--border-color);&quot;&gt;&amp;lt;&amp;lt;Interface&amp;gt;&amp;gt;&lt;/i&gt;&lt;br style=&quot;border-color: var(--border-color);&quot;&gt;&lt;b style=&quot;border-color: var(--border-color);&quot;&gt;UserService&lt;/b&gt;&lt;/p&gt;&lt;hr style=&quot;border-color: var(--border-color);&quot; size=&quot;1&quot;&gt;&lt;p style=&quot;border-color: var(--border-color); margin: 0px 0px 0px 4px;&quot;&gt;&lt;/p&gt;&lt;p style=&quot;border-color: var(--border-color); margin: 0px 0px 0px 4px;&quot;&gt;+ getCustomerByLogin()&lt;br style=&quot;border-color: var(--border-color);&quot;&gt;+ getEmployeeByLogin()&lt;br&gt;&lt;/p&gt;" style="verticalAlign=top;align=left;overflow=fill;fontSize=12;fontFamily=Helvetica;html=1;whiteSpace=wrap;" vertex="1" parent="1">
          <mxGeometry x="390" y="60" width="190" height="80" as="geometry" />
        </mxCell>
        <mxCell id="YptJBvcX4ipB8fHEeAZc-12" value="" style="endArrow=block;dashed=1;endFill=0;endSize=12;html=1;rounded=0;" edge="1" parent="1" source="YptJBvcX4ipB8fHEeAZc-10" target="YptJBvcX4ipB8fHEeAZc-11">
          <mxGeometry width="160" relative="1" as="geometry">
            <mxPoint x="810" y="440" as="sourcePoint" />
            <mxPoint x="970" y="440" as="targetPoint" />
          </mxGeometry>
        </mxCell>
        <mxCell id="YptJBvcX4ipB8fHEeAZc-13" value="ProductServiceImpl" style="swimlane;fontStyle=0;childLayout=stackLayout;horizontal=1;startSize=26;fillColor=none;horizontalStack=0;resizeParent=1;resizeParentMax=0;resizeLast=0;collapsible=1;marginBottom=0;whiteSpace=wrap;html=1;" vertex="1" parent="1">
          <mxGeometry x="680" y="270" width="190" height="50" as="geometry" />
        </mxCell>
        <mxCell id="YptJBvcX4ipB8fHEeAZc-14" value="&lt;p style=&quot;border-color: var(--border-color); margin: 4px 0px 0px; text-align: center;&quot;&gt;&lt;i style=&quot;border-color: var(--border-color);&quot;&gt;&amp;lt;&amp;lt;Interface&amp;gt;&amp;gt;&lt;/i&gt;&lt;br style=&quot;border-color: var(--border-color);&quot;&gt;&lt;b style=&quot;border-color: var(--border-color);&quot;&gt;ProductService&lt;/b&gt;&lt;/p&gt;&lt;hr style=&quot;border-color: var(--border-color);&quot; size=&quot;1&quot;&gt;&lt;p style=&quot;border-color: var(--border-color); margin: 0px 0px 0px 4px;&quot;&gt;&lt;/p&gt;&lt;p style=&quot;border-color: var(--border-color); margin: 0px 0px 0px 4px;&quot;&gt;+ getProductById()&lt;br style=&quot;border-color: var(--border-color);&quot;&gt;+ getAllProducts()&lt;br&gt;&lt;/p&gt;" style="verticalAlign=top;align=left;overflow=fill;fontSize=12;fontFamily=Helvetica;html=1;whiteSpace=wrap;" vertex="1" parent="1">
          <mxGeometry x="680" y="60" width="190" height="80" as="geometry" />
        </mxCell>
        <mxCell id="YptJBvcX4ipB8fHEeAZc-15" value="" style="endArrow=block;dashed=1;endFill=0;endSize=12;html=1;rounded=0;" edge="1" parent="1" source="YptJBvcX4ipB8fHEeAZc-13" target="YptJBvcX4ipB8fHEeAZc-14">
          <mxGeometry width="160" relative="1" as="geometry">
            <mxPoint x="1100" y="440" as="sourcePoint" />
            <mxPoint x="1260" y="440" as="targetPoint" />
          </mxGeometry>
        </mxCell>
        <mxCell id="YptJBvcX4ipB8fHEeAZc-16" value="OrderServiceImpl" style="swimlane;fontStyle=0;childLayout=stackLayout;horizontal=1;startSize=26;fillColor=none;horizontalStack=0;resizeParent=1;resizeParentMax=0;resizeLast=0;collapsible=1;marginBottom=0;whiteSpace=wrap;html=1;" vertex="1" parent="1">
          <mxGeometry x="950" y="290" width="190" height="50" as="geometry" />
        </mxCell>
        <mxCell id="YptJBvcX4ipB8fHEeAZc-17" value="&lt;p style=&quot;border-color: var(--border-color); margin: 4px 0px 0px; text-align: center;&quot;&gt;&lt;i style=&quot;border-color: var(--border-color);&quot;&gt;&amp;lt;&amp;lt;Interface&amp;gt;&amp;gt;&lt;/i&gt;&lt;br style=&quot;border-color: var(--border-color);&quot;&gt;&lt;b style=&quot;border-color: var(--border-color);&quot;&gt;OrderService&lt;/b&gt;&lt;/p&gt;&lt;hr style=&quot;border-color: var(--border-color);&quot; size=&quot;1&quot;&gt;&lt;p style=&quot;border-color: var(--border-color); margin: 0px 0px 0px 4px;&quot;&gt;&lt;/p&gt;&lt;p style=&quot;border-color: var(--border-color); margin: 0px 0px 0px 4px;&quot;&gt;+ getOrderByCustomerLogin()&lt;/p&gt;&lt;p style=&quot;border-color: var(--border-color); margin: 0px 0px 0px 4px;&quot;&gt;+ getOrderByEmployeeLogin()&lt;br style=&quot;border-color: var(--border-color);&quot;&gt;+ addOrder()&lt;/p&gt;" style="verticalAlign=top;align=left;overflow=fill;fontSize=12;fontFamily=Helvetica;html=1;whiteSpace=wrap;" vertex="1" parent="1">
          <mxGeometry x="950" y="50" width="190" height="100" as="geometry" />
        </mxCell>
        <mxCell id="YptJBvcX4ipB8fHEeAZc-18" value="" style="endArrow=block;dashed=1;endFill=0;endSize=12;html=1;rounded=0;" edge="1" parent="1" source="YptJBvcX4ipB8fHEeAZc-16" target="YptJBvcX4ipB8fHEeAZc-17">
          <mxGeometry width="160" relative="1" as="geometry">
            <mxPoint x="1370" y="440" as="sourcePoint" />
            <mxPoint x="1530" y="440" as="targetPoint" />
          </mxGeometry>
        </mxCell>
        <mxCell id="YptJBvcX4ipB8fHEeAZc-19" value="" style="endArrow=diamondThin;endFill=1;endSize=24;html=1;rounded=0;" edge="1" parent="1" source="swd-MPaGd7rMb2sxRymj-6" target="YptJBvcX4ipB8fHEeAZc-10">
          <mxGeometry width="160" relative="1" as="geometry">
            <mxPoint x="430" y="300" as="sourcePoint" />
            <mxPoint x="470" y="390" as="targetPoint" />
          </mxGeometry>
        </mxCell>
        <mxCell id="YptJBvcX4ipB8fHEeAZc-20" value="" style="endArrow=diamondThin;endFill=1;endSize=24;html=1;rounded=0;edgeStyle=orthogonalEdgeStyle;entryX=0;entryY=0.25;entryDx=0;entryDy=0;" edge="1" parent="1" source="swd-MPaGd7rMb2sxRymj-7" target="YptJBvcX4ipB8fHEeAZc-10">
          <mxGeometry width="160" relative="1" as="geometry">
            <mxPoint x="495" y="555" as="sourcePoint" />
            <mxPoint x="495" y="330" as="targetPoint" />
            <Array as="points">
              <mxPoint x="225" y="500" />
              <mxPoint x="350" y="500" />
              <mxPoint x="350" y="283" />
            </Array>
          </mxGeometry>
        </mxCell>
        <mxCell id="YptJBvcX4ipB8fHEeAZc-21" value="" style="endArrow=diamondThin;endFill=1;endSize=24;html=1;rounded=0;" edge="1" parent="1" source="swd-MPaGd7rMb2sxRymj-6" target="YptJBvcX4ipB8fHEeAZc-5">
          <mxGeometry width="160" relative="1" as="geometry">
            <mxPoint x="505" y="565" as="sourcePoint" />
            <mxPoint x="505" y="340" as="targetPoint" />
          </mxGeometry>
        </mxCell>
        <mxCell id="YptJBvcX4ipB8fHEeAZc-22" value="" style="endArrow=diamondThin;endFill=1;endSize=24;html=1;rounded=0;" edge="1" parent="1" source="swd-MPaGd7rMb2sxRymj-9" target="YptJBvcX4ipB8fHEeAZc-13">
          <mxGeometry width="160" relative="1" as="geometry">
            <mxPoint x="770" y="525" as="sourcePoint" />
            <mxPoint x="780" y="310" as="targetPoint" />
          </mxGeometry>
        </mxCell>
        <mxCell id="YptJBvcX4ipB8fHEeAZc-23" value="" style="endArrow=diamondThin;endFill=1;endSize=24;html=1;rounded=0;entryX=0.5;entryY=1;entryDx=0;entryDy=0;exitX=0.5;exitY=0;exitDx=0;exitDy=0;edgeStyle=orthogonalEdgeStyle;" edge="1" parent="1" source="swd-MPaGd7rMb2sxRymj-8" target="YptJBvcX4ipB8fHEeAZc-16">
          <mxGeometry width="160" relative="1" as="geometry">
            <mxPoint x="525" y="585" as="sourcePoint" />
            <mxPoint x="525" y="360" as="targetPoint" />
          </mxGeometry>
        </mxCell>
        <mxCell id="YptJBvcX4ipB8fHEeAZc-24" value="" style="endArrow=diamondThin;endFill=1;endSize=24;html=1;rounded=0;edgeStyle=orthogonalEdgeStyle;" edge="1" parent="1" source="swd-MPaGd7rMb2sxRymj-9" target="YptJBvcX4ipB8fHEeAZc-16">
          <mxGeometry width="160" relative="1" as="geometry">
            <mxPoint x="535" y="595" as="sourcePoint" />
            <mxPoint x="1190" y="650" as="targetPoint" />
            <Array as="points">
              <mxPoint x="775" y="660" />
              <mxPoint x="1190" y="660" />
              <mxPoint x="1190" y="315" />
            </Array>
          </mxGeometry>
        </mxCell>
        <mxCell id="YptJBvcX4ipB8fHEeAZc-25" value="" style="endArrow=diamondThin;endFill=1;endSize=24;html=1;rounded=0;edgeStyle=orthogonalEdgeStyle;" edge="1" parent="1" source="swd-MPaGd7rMb2sxRymj-6" target="YptJBvcX4ipB8fHEeAZc-16">
          <mxGeometry width="160" relative="1" as="geometry">
            <mxPoint x="545" y="605" as="sourcePoint" />
            <mxPoint x="1190" y="310" as="targetPoint" />
            <Array as="points">
              <mxPoint x="485" y="660" />
              <mxPoint x="1190" y="660" />
              <mxPoint x="1190" y="315" />
            </Array>
          </mxGeometry>
        </mxCell>
        <mxCell id="YptJBvcX4ipB8fHEeAZc-26" value="" style="endArrow=diamondThin;endFill=1;endSize=24;html=1;rounded=0;edgeStyle=orthogonalEdgeStyle;" edge="1" parent="1" source="swd-MPaGd7rMb2sxRymj-7" target="YptJBvcX4ipB8fHEeAZc-16">
          <mxGeometry width="160" relative="1" as="geometry">
            <mxPoint x="555" y="615" as="sourcePoint" />
            <mxPoint x="520" y="740" as="targetPoint" />
            <Array as="points">
              <mxPoint x="225" y="660" />
              <mxPoint x="1045" y="660" />
            </Array>
          </mxGeometry>
        </mxCell>
        <mxCell id="YptJBvcX4ipB8fHEeAZc-27" value="User" style="html=1;whiteSpace=wrap;" vertex="1" parent="1">
          <mxGeometry x="-70" y="270" width="110" height="50" as="geometry" />
        </mxCell>
        <mxCell id="YptJBvcX4ipB8fHEeAZc-28" value="&lt;br&gt;" style="endArrow=open;endSize=12;dashed=1;html=1;rounded=0;" edge="1" parent="1" source="YptJBvcX4ipB8fHEeAZc-27" target="YptJBvcX4ipB8fHEeAZc-5">
          <mxGeometry width="160" relative="1" as="geometry">
            <mxPoint x="450" y="410" as="sourcePoint" />
            <mxPoint x="610" y="410" as="targetPoint" />
          </mxGeometry>
        </mxCell>
        <mxCell id="YptJBvcX4ipB8fHEeAZc-29" value="&lt;br&gt;" style="endArrow=open;endSize=12;dashed=1;html=1;rounded=0;entryX=0.25;entryY=0;entryDx=0;entryDy=0;" edge="1" parent="1" source="YptJBvcX4ipB8fHEeAZc-27" target="YptJBvcX4ipB8fHEeAZc-10">
          <mxGeometry width="160" relative="1" as="geometry">
            <mxPoint x="60" y="200" as="sourcePoint" />
            <mxPoint x="140" y="200" as="targetPoint" />
            <Array as="points">
              <mxPoint x="-15" y="240" />
              <mxPoint x="350" y="240" />
              <mxPoint x="438" y="240" />
            </Array>
          </mxGeometry>
        </mxCell>
        <mxCell id="YptJBvcX4ipB8fHEeAZc-30" value="Card" style="html=1;whiteSpace=wrap;" vertex="1" parent="1">
          <mxGeometry x="-70" y="380" width="110" height="50" as="geometry" />
        </mxCell>
        <mxCell id="YptJBvcX4ipB8fHEeAZc-31" value="&lt;br&gt;" style="endArrow=open;endSize=12;dashed=1;html=1;rounded=0;edgeStyle=orthogonalEdgeStyle;" edge="1" parent="1" source="YptJBvcX4ipB8fHEeAZc-30">
          <mxGeometry width="160" relative="1" as="geometry">
            <mxPoint x="50" y="305" as="sourcePoint" />
            <mxPoint x="410" y="320" as="targetPoint" />
          </mxGeometry>
        </mxCell>
        <mxCell id="YptJBvcX4ipB8fHEeAZc-32" value="Product" style="html=1;whiteSpace=wrap;" vertex="1" parent="1">
          <mxGeometry x="1250" y="400" width="110" height="50" as="geometry" />
        </mxCell>
        <mxCell id="YptJBvcX4ipB8fHEeAZc-33" value="Order" style="html=1;whiteSpace=wrap;" vertex="1" parent="1">
          <mxGeometry x="1250" y="180" width="110" height="50" as="geometry" />
        </mxCell>
        <mxCell id="YptJBvcX4ipB8fHEeAZc-34" value="&lt;br&gt;" style="endArrow=open;endSize=12;dashed=1;html=1;rounded=0;edgeStyle=orthogonalEdgeStyle;" edge="1" parent="1" source="YptJBvcX4ipB8fHEeAZc-32" target="YptJBvcX4ipB8fHEeAZc-13">
          <mxGeometry width="160" relative="1" as="geometry">
            <mxPoint x="1060" y="515" as="sourcePoint" />
            <mxPoint x="800" y="330" as="targetPoint" />
            <Array as="points">
              <mxPoint x="800" y="425" />
            </Array>
          </mxGeometry>
        </mxCell>
        <mxCell id="YptJBvcX4ipB8fHEeAZc-35" value="&lt;br&gt;" style="endArrow=open;endSize=12;dashed=1;html=1;rounded=0;edgeStyle=orthogonalEdgeStyle;" edge="1" parent="1" source="YptJBvcX4ipB8fHEeAZc-27" target="YptJBvcX4ipB8fHEeAZc-16">
          <mxGeometry width="160" relative="1" as="geometry">
            <mxPoint x="-5" y="280" as="sourcePoint" />
            <mxPoint x="448" y="280" as="targetPoint" />
            <Array as="points">
              <mxPoint x="-15" y="240" />
              <mxPoint x="980" y="240" />
            </Array>
          </mxGeometry>
        </mxCell>
        <mxCell id="YptJBvcX4ipB8fHEeAZc-36" value="&lt;br&gt;" style="endArrow=open;endSize=12;dashed=1;html=1;rounded=0;edgeStyle=orthogonalEdgeStyle;" edge="1" parent="1" source="YptJBvcX4ipB8fHEeAZc-30" target="YptJBvcX4ipB8fHEeAZc-16">
          <mxGeometry width="160" relative="1" as="geometry">
            <mxPoint x="50" y="415" as="sourcePoint" />
            <mxPoint x="420" y="330" as="targetPoint" />
            <Array as="points">
              <mxPoint x="980" y="405" />
            </Array>
          </mxGeometry>
        </mxCell>
        <mxCell id="YptJBvcX4ipB8fHEeAZc-37" value="&lt;br&gt;" style="endArrow=open;endSize=12;dashed=1;html=1;rounded=0;edgeStyle=orthogonalEdgeStyle;" edge="1" parent="1" source="YptJBvcX4ipB8fHEeAZc-32" target="YptJBvcX4ipB8fHEeAZc-16">
          <mxGeometry width="160" relative="1" as="geometry">
            <mxPoint x="1260" y="435" as="sourcePoint" />
            <mxPoint x="810" y="330" as="targetPoint" />
            <Array as="points">
              <mxPoint x="1010" y="430" />
            </Array>
          </mxGeometry>
        </mxCell>
        <mxCell id="YptJBvcX4ipB8fHEeAZc-38" value="&lt;br&gt;" style="endArrow=open;endSize=12;dashed=1;html=1;rounded=0;edgeStyle=orthogonalEdgeStyle;" edge="1" parent="1" source="YptJBvcX4ipB8fHEeAZc-33" target="YptJBvcX4ipB8fHEeAZc-16">
          <mxGeometry width="160" relative="1" as="geometry">
            <mxPoint x="1270" y="445" as="sourcePoint" />
            <mxPoint x="820" y="340" as="targetPoint" />
            <Array as="points">
              <mxPoint x="1080" y="210" />
            </Array>
          </mxGeometry>
        </mxCell>
        <mxCell id="YptJBvcX4ipB8fHEeAZc-39" value="Extends" style="endArrow=block;endSize=16;endFill=0;html=1;rounded=0;edgeStyle=orthogonalEdgeStyle;" edge="1" parent="1" source="YptJBvcX4ipB8fHEeAZc-40" target="YptJBvcX4ipB8fHEeAZc-32">
          <mxGeometry width="160" relative="1" as="geometry">
            <mxPoint x="670" y="360" as="sourcePoint" />
            <mxPoint x="830" y="360" as="targetPoint" />
          </mxGeometry>
        </mxCell>
        <mxCell id="YptJBvcX4ipB8fHEeAZc-40" value="Guitar" style="html=1;whiteSpace=wrap;" vertex="1" parent="1">
          <mxGeometry x="1250" y="270" width="110" height="50" as="geometry" />
        </mxCell>
        <mxCell id="YptJBvcX4ipB8fHEeAZc-41" value="Synthesizer" style="html=1;whiteSpace=wrap;" vertex="1" parent="1">
          <mxGeometry x="1250" y="520" width="110" height="50" as="geometry" />
        </mxCell>
        <mxCell id="YptJBvcX4ipB8fHEeAZc-42" value="Extends" style="endArrow=block;endSize=16;endFill=0;html=1;rounded=0;edgeStyle=orthogonalEdgeStyle;" edge="1" parent="1" source="YptJBvcX4ipB8fHEeAZc-41" target="YptJBvcX4ipB8fHEeAZc-32">
          <mxGeometry width="160" relative="1" as="geometry">
            <mxPoint x="1390" y="345" as="sourcePoint" />
            <mxPoint x="1315" y="410" as="targetPoint" />
          </mxGeometry>
        </mxCell>
      </root>
    </mxGraphModel>
  </diagram>
</mxfile>
